<svg width="595" height="1080" xmlns="http://www.w3.org/2000/svg">
 <!-- Created with Method Draw - http://github.com/duopixel/Method-Draw/ -->
 <g>
  <title>background</title>
  <rect fill="none" id="canvas_background" height="1082" width="597" y="-1" x="-1"/>
  <g display="none" overflow="visible" y="0" x="0" height="100%" width="100%" id="canvasGrid">
   <rect fill="url(#gridpattern)" stroke-width="0" y="0" x="0" height="100%" width="100%"/>
  </g>
 </g>
 <g>
  <title>Layer 1</title>
  <line stroke="#79af2a" stroke-linecap="undefined" stroke-linejoin="undefined" id="svg_1" y2="255.31578" x2="189" y1="255.31578" x1="75.68422" stroke-width="11" fill="none"/>
  <line stroke="#79af2a" stroke-linecap="undefined" stroke-linejoin="undefined" id="svg_3" y2="255.39216" x2="519.4987" y1="255.39216" x1="406.18292" stroke-width="11" fill="none"/>
  <line stroke="#79af2a" stroke-linecap="undefined" stroke-linejoin="undefined" id="svg_4" y2="824.86214" x2="187.17244" y1="824.86214" x1="74.17244" stroke-width="11" fill="none"/>
  <line stroke="#79af2a" stroke-linecap="undefined" stroke-linejoin="undefined" id="svg_5" y2="825.17394" x2="518.04306" y1="825.17394" x1="405.04306" stroke-width="11" fill="none"/>
  <line stroke="#79af2a" transform="rotate(-89.67218780517578 79.97393798828135,750.6958007812501) " stroke-linecap="undefined" stroke-linejoin="undefined" id="svg_6" y2="750.69578" x2="149.2238" y1="750.69578" x1="10.72409" stroke-width="11" fill="none"/>
  <line stroke="#79af2a" transform="rotate(-89.67218780517578 512.8445434570314,750.9801025390625) " stroke-linecap="undefined" stroke-linejoin="undefined" id="svg_8" y2="750.98009" x2="582.09442" y1="750.98009" x1="443.59471" stroke-width="11" fill="none"/>
  <line stroke="#79af2a" transform="rotate(-89.67218780517578 80.80150604248044,329.6957702636719) " stroke-linecap="undefined" stroke-linejoin="undefined" id="svg_9" y2="329.69578" x2="150.05136" y1="329.69578" x1="11.55165" stroke-width="11" fill="none"/>
  <line stroke="#79af2a" transform="rotate(-89.67218780517578 513.625,329.69577026367193) " stroke-linecap="undefined" stroke-linejoin="undefined" id="svg_10" y2="329.69578" x2="582.87489" y1="329.69578" x1="444.37518" stroke-width="11" fill="none"/>
  <line stroke="#79af2a" stroke-linecap="undefined" stroke-linejoin="undefined" id="svg_11" y2="252.2783" x2="420.02029" y1="252.2783" x1="160.7715" stroke-width="5" fill="none"/>
  <line stroke="#79af2a" stroke-linecap="undefined" stroke-linejoin="undefined" id="svg_12" y2="828.04305" x2="425.8421" y1="828.04305" x1="166.59332" stroke-width="5" fill="none"/>
  <line stroke="#79af2a" transform="rotate(90 77.39071655273428,531.8708496093751) " stroke-linecap="undefined" stroke-linejoin="undefined" id="svg_13" y2="531.87083" x2="237.15866" y1="531.87083" x1="-82.37723" stroke-width="5" fill="none"/>
  <line stroke="#79af2a" transform="rotate(90 516.3348999023438,533.7847290039064) " stroke-linecap="undefined" stroke-linejoin="undefined" id="svg_14" y2="533.78471" x2="676.10283" y1="533.78471" x1="356.56694" stroke-width="5" fill="none"/>
 </g>
</svg>